<svg xmlns="http://www.w3.org/2000/svg" viewBox="0 0 115.55 55.38"><style>.st653{fill:#dbdcdd}</style><path d="M86.81 51.7c-3.35 0-6.68-.72-9.74-2.11-6.12 2.75-13.37 2.77-19.5.06-6.08 2.68-13.28 2.69-19.37 0a24.086 24.086 0 0 1-9.68 2.04c-13.23 0-24-10.77-24-24s10.77-24 24-24c3.33 0 6.64.7 9.68 2.04 6.08-2.69 13.29-2.68 19.37 0 6.13-2.7 13.38-2.69 19.5.06 3.06-1.38 6.38-2.11 9.74-2.11 13.13 0 23.82 10.77 23.82 24S99.94 51.7 86.81 51.7z" fill="#fff"/><path class="st653" d="M28.52 48.2c-11.3 0-20.5-9.2-20.5-20.5s9.2-20.5 20.5-20.5c3.42 0 6.8.85 9.77 2.47a20.508 20.508 0 1 1 .15 35.97 20.5 20.5 0 0 1-9.92 2.56zm0-40c-10.75 0-19.5 8.75-19.5 19.5s8.75 19.5 19.5 19.5a19.502 19.502 0 0 0 9.29-36.65 19.449 19.449 0 0 0-9.29-2.35z"/><path d="M67.52 27.7c0 11.05-8.87 20-19.82 20-10.94 0-19.81-8.95-19.81-20s8.87-20 19.81-20 19.82 8.96 19.82 20" fill="#70acd6"/><path d="M86.81 27.7c0 11.05-8.87 20-19.82 20-10.94 0-19.81-8.95-19.81-20s8.87-20 19.81-20 19.82 8.96 19.82 20" fill="#4190c9"/><path d="M106.63 27.7c0 11.05-8.87 20-19.82 20-10.94 0-19.81-8.95-19.81-20s8.87-20 19.81-20 19.82 8.96 19.82 20" fill="#066c9e"/><path class="st653" d="M86.81 48.2c-11.2 0-20.31-9.2-20.31-20.5S75.61 7.2 86.81 7.2c11.21 0 20.32 9.2 20.32 20.5s-9.12 20.5-20.32 20.5zm0-40c-10.65 0-19.31 8.75-19.31 19.5s8.66 19.5 19.31 19.5c10.65 0 19.32-8.75 19.32-19.5S97.46 8.2 86.81 8.2z"/></svg>
