<?xml version="1.0" encoding="utf-8"?>
<!-- Generator: Adobe Illustrator 23.0.1, SVG Export Plug-In . SVG Version: 6.00 Build 0)  -->
<svg version="1.1" id="Layer_1" xmlns="http://www.w3.org/2000/svg" xmlns:xlink="http://www.w3.org/1999/xlink" x="0px" y="0px"
	 viewBox="0 0 133 57" style="enable-background:new 0 0 133 57;" xml:space="preserve">
<style type="text/css">
	.st0{filter:url(#Adobe_OpacityMaskFilter);}
	.st1{fill-rule:evenodd;clip-rule:evenodd;fill:#FFFFFF;}
	.st2{mask:url(#mask-2_1_);fill-rule:evenodd;clip-rule:evenodd;fill:#008057;}
	.st3{filter:url(#Adobe_OpacityMaskFilter_1_);}
	.st4{mask:url(#mask-2_2_);fill-rule:evenodd;clip-rule:evenodd;fill:#F28F00;}
	.st5{filter:url(#Adobe_OpacityMaskFilter_2_);}
	.st6{mask:url(#mask-2_3_);fill-rule:evenodd;clip-rule:evenodd;fill:#008AD1;}
	.st7{filter:url(#Adobe_OpacityMaskFilter_3_);}
	.st8{mask:url(#mask-2_4_);fill-rule:evenodd;clip-rule:evenodd;fill:#6D3A8E;}
	.st9{fill-rule:evenodd;clip-rule:evenodd;fill:#27386B;}
</style>
<title>style-colors</title>
<desc>Created with Sketch.</desc>
<g id="style-colors">
	<g id="Clip-26">
	</g>
	<defs>
		<filter id="Adobe_OpacityMaskFilter" filterUnits="userSpaceOnUse" x="61" y="26" width="19" height="26">
			<feColorMatrix  type="matrix" values="1 0 0 0 0  0 1 0 0 0  0 0 1 0 0  0 0 0 1 0"/>
		</filter>
	</defs>
	<mask maskUnits="userSpaceOnUse" x="61" y="26" width="19" height="26" id="mask-2_1_">
		<g class="st0">
			<path id="path-1_1_" class="st1" d="M66,44.5L66,44.5C66,51.4,71.1,57,78.5,57l0,0C85.8,57,91,51.3,91,44.5l0,0v-0.1
				C91,37.6,85.9,32,78.5,32l0,0C71.2,32,66,37.7,66,44.5L66,44.5z"/>
		</g>
	</mask>
	<polygon id="Fill-16" class="st2" points="80,29.2 66.6,52 61,48.8 74.4,26 	"/>
	<defs>
		<filter id="Adobe_OpacityMaskFilter_1_" filterUnits="userSpaceOnUse" x="67" y="32.3" width="17.3" height="22">
			<feColorMatrix  type="matrix" values="1 0 0 0 0  0 1 0 0 0  0 0 1 0 0  0 0 0 1 0"/>
		</filter>
	</defs>
	<mask maskUnits="userSpaceOnUse" x="67" y="32.3" width="17.3" height="22" id="mask-2_2_">
		<g class="st3">
			<path id="path-1_2_" class="st1" d="M66,43.9L66,43.9c0,6.9,5.1,12.5,12.5,12.5l0,0c7.3,0,12.5-5.7,12.5-12.5l0,0v-0.1
				c0-6.8-5.1-12.4-12.5-12.4l0,0C71.2,31.4,66,37.1,66,43.9L66,43.9z"/>
		</g>
	</mask>
	<polygon id="Fill-19" class="st4" points="84.4,34.4 72.7,54.4 67,51.2 78.1,32.3 	"/>
	<defs>
		<filter id="Adobe_OpacityMaskFilter_2_" filterUnits="userSpaceOnUse" x="72.2" y="32.1" width="19" height="26">
			<feColorMatrix  type="matrix" values="1 0 0 0 0  0 1 0 0 0  0 0 1 0 0  0 0 0 1 0"/>
		</filter>
	</defs>
	<mask maskUnits="userSpaceOnUse" x="72.2" y="32.1" width="19" height="26" id="mask-2_3_">
		<g class="st5">
			<path id="path-1_3_" class="st1" d="M66.2,44.6L66.2,44.6c0,6.9,5.1,12.5,12.5,12.5l0,0c7.3,0,12.5-5.7,12.5-12.5l0,0v-0.1
				c0-6.8-5.1-12.4-12.5-12.4l0,0C71.4,32.1,66.2,37.8,66.2,44.6L66.2,44.6z"/>
		</g>
	</mask>
	<polygon id="Fill-22" class="st6" points="91.2,35.3 77.8,58.1 72.2,54.9 85.5,32.1 	"/>
	<defs>
		<filter id="Adobe_OpacityMaskFilter_3_" filterUnits="userSpaceOnUse" x="77.4" y="35.6" width="19" height="26">
			<feColorMatrix  type="matrix" values="1 0 0 0 0  0 1 0 0 0  0 0 1 0 0  0 0 0 1 0"/>
		</filter>
	</defs>
	<mask maskUnits="userSpaceOnUse" x="77.4" y="35.6" width="19" height="26" id="mask-2_4_">
		<g class="st7">
			<path id="path-1_4_" class="st1" d="M65.4,44.1L65.4,44.1c0,6.9,5.1,12.5,12.5,12.5l0,0c7.3,0,12.5-5.7,12.5-12.5l0,0V44
				c0-6.8-5.1-12.4-12.5-12.4l0,0C70.6,31.6,65.4,37.3,65.4,44.1L65.4,44.1z"/>
		</g>
	</mask>
	<polygon id="Fill-25" class="st8" points="96.4,38.8 83,61.6 77.4,58.4 90.8,35.6 	"/>
	<path id="Fill-29" class="st9" d="M78.5,32C71.2,32,66,37.7,66,44.5v0.1C66,51.4,71.1,57,78.5,57C85.8,57,91,51.3,91,44.5v-0.1
		C91,37.6,85.9,32,78.5,32 M78.5,33.8c6.1,0,10.7,4.6,10.7,10.6v0.1c0,6.1-4.6,10.7-10.7,10.7c-6.1,0-10.7-4.6-10.7-10.6v-0.1
		C67.8,38.4,72.4,33.8,78.5,33.8"/>
	<path id="Combined-Shape" class="st9" d="M1,21.3L2.1,20c2.6,2.4,5,3.5,8.5,3.5c3.6,0,6-2,6-4.7v-0.1c0-2.5-1.3-4-6.7-5.1
		c-5.7-1.2-8-3.1-8-6.7V6.9c0-3.5,3.2-6.2,7.6-6.2c3.5,0,5.7,1,8.1,2.9L16.6,5C14.3,3,12.1,2.3,9.5,2.3c-3.5,0-5.8,2-5.8,4.5v0.1
		c0,2.5,1.3,4,6.9,5.2c5.5,1.1,7.8,3.1,7.8,6.5v0.1c0,3.8-3.3,6.5-7.9,6.5C6.8,25.1,3.8,23.8,1,21.3z M23,20.3V9h-2.5V7.5H23V1.9
		h1.7v5.5h6.1V9h-6.1v11.2c0,2.5,1.5,3.4,3.5,3.4c0.8,0,1.6-0.2,2.5-0.6v1.6c-0.9,0.4-1.7,0.6-2.8,0.6C25.2,25.1,23,23.6,23,20.3z
		 M48.5,7.5h1.8l-7.5,17.9c-1.5,3.6-3.3,4.9-5.8,4.9c-1.3,0-2.3-0.2-3.4-0.7l0.6-1.5c0.9,0.4,1.7,0.6,2.9,0.6c1.8,0,3-1.1,4.3-4.1
		L33.2,7.5h1.9l7.2,15.5L48.5,7.5z M54.5,24.8V0h1.7v24.8H54.5z M75.1,15.3c-0.2-3.5-2.2-6.7-6.2-6.7c-3.4,0-6.1,2.9-6.4,6.7H75.1z
		 M60.8,16.1L60.8,16.1c0-5.1,3.5-9.1,8.2-9.1c4.8,0,7.9,3.9,7.9,9.1c0,0.3,0,0.4,0,0.7H62.5c0.3,4.3,3.4,6.8,6.8,6.8
		c2.7,0,4.5-1.2,5.9-2.7l1.2,1c-1.8,1.9-3.8,3.3-7.1,3.3C64.7,25.2,60.8,21.5,60.8,16.1z M0,44.5L0,44.5c0-7,5.2-12.6,12.5-12.6
		c4.5,0,7.2,1.6,9.5,3.8l-2.7,3.2c-1.9-1.8-4-3-6.8-3c-4.6,0-8,3.8-8,8.6v0.1c0,4.7,3.4,8.6,8,8.6c3,0,4.9-1.2,7-3.1l2.7,2.8
		c-2.5,2.6-5.3,4.3-9.8,4.3C5.3,57,0,51.5,0,44.5z M42.9,44.5L42.9,44.5c0-4.8-3.4-8.7-8.2-8.7c-4.8,0-8.2,3.8-8.2,8.6v0.1
		c0,4.7,3.4,8.6,8.2,8.6C39.6,53,42.9,49.2,42.9,44.5z M22.1,44.5L22.1,44.5c0-6.9,5.3-12.6,12.7-12.6s12.6,5.6,12.6,12.5v0.1
		c0,6.8-5.3,12.5-12.7,12.5S22.1,51.4,22.1,44.5z M49.8,32.3H54v20.4h12.7v3.9h-17V32.3z M104.1,44.3c3,0,5-1.6,5-4.1v-0.1
		c0-2.6-1.9-4-5-4h-6.2v8.1H104.1z M93.6,32.3h10.8c3,0,5.4,0.9,7,2.4c1.3,1.3,2,3.1,2,5.2v0.1c0,4-2.4,6.4-5.7,7.3l6.5,9.2h-5
		l-5.9-8.5h-5.3v8.5h-4.3V32.3z M114.3,53l2.6-3c2.3,2,4.7,3.2,7.6,3.2c2.6,0,4.3-1.2,4.3-3V50c0-1.7-1-2.7-5.5-3.7
		c-5.2-1.2-8.1-2.8-8.1-7.2V39c0-4.2,3.5-7,8.3-7c3.5,0,6.3,1.1,8.8,3l-2.3,3.2c-2.2-1.6-4.4-2.5-6.6-2.5c-2.5,0-3.9,1.3-3.9,2.9
		v0.1c0,1.9,1.1,2.7,5.8,3.8c5.1,1.2,7.7,3.1,7.7,7.1v0.1c0,4.5-3.6,7.2-8.6,7.2C120.7,56.9,117.2,55.6,114.3,53z"/>
</g>
</svg>
